<svg width="205" height="185" viewBox="0 0 205 185" fill="none" xmlns="http://www.w3.org/2000/svg">
<path d="M13 80C6.09644 80 0.5 85.5964 0.5 92.5C0.5 99.4036 6.09644 105 13 105V80ZM200.839 101.339C205.72 96.4573 205.72 88.5427 200.839 83.6612L121.289 4.11165C116.408 -0.769901 108.493 -0.769901 103.612 4.11165C98.7301 8.99321 98.7301 16.9078 103.612 21.7893L174.322 92.5L103.612 163.211C98.7301 168.092 98.7301 176.007 103.612 180.888C108.493 185.77 116.408 185.77 121.289 180.888L200.839 101.339ZM13 105H192V80H13V105Z" fill="#E28F47"/>
</svg>
